<?xml version="1.0" encoding="UTF-8"?>
<svg id="Layer_1" data-name="Layer 1" xmlns="http://www.w3.org/2000/svg" viewBox="0 0 647.32 937.78">
  <defs>
    <style>
      .cls-1 {
        fill: #000;
        stroke-width: 0px;
      }
    </style>
  </defs>
  <path class="cls-1" d="M492.65,744.56l-62.32-62.32s-.02.01-.03.02l-106.63-106.63v131.78c-131.79,0-239.01-107.22-239.01-239.01,0-38.31,9.08-74.54,25.17-106.67l-62.32-62.32C16.56,349.77,0,407.81,0,468.4c0,86.45,33.67,167.73,94.8,228.86,61.13,61.13,142.41,94.8,228.86,94.8v145.72l181.08-181.08-12.12-12.12s.02-.01.03-.02Z"/>
  <path class="cls-1" d="M552.52,239.54c-61.13-61.13-142.41-94.8-228.86-94.8V0l-181.08,181.08,181.08,181.08v-132.76c131.79,0,239.01,107.22,239.01,239.01,0,38.31-9.08,74.54-25.17,106.66l62.32,62.32c30.94-50.35,47.5-108.39,47.5-168.99,0-86.45-33.67-167.73-94.8-228.86Z"/>
</svg>