<?xml version="1.0" encoding="UTF-8"?>
<svg id="Layer_1" data-name="Layer 1" xmlns="http://www.w3.org/2000/svg" viewBox="0 0 948.19 948.19">
  <defs>
    <style>
      .cls-1 {
        fill: #3fa9f5;
        stroke-width: 0px;
      }
    </style>
  </defs>
  <path class="cls-1" d="M362.75,615.06c-37.65-56.66-50.99-124.59-37.55-191.28,11.38-56.48,40.82-106.34,83.99-143.16-11.91-2.21-24.02-3.34-36.18-3.34-37.42,0-75.23,10.63-108.66,32.85-43.8,29.11-73.64,73.52-84.03,125.07-10.39,51.55-.08,104.06,29.03,147.85,44.94,67.62,124.75,98.46,199.96,84.58-17.48-14.94-33.22-32.5-46.56-52.58Z"/>
  <path class="cls-1" d="M381.88,435.2c-10.39,51.55-.08,104.06,29.03,147.85,16.86,25.36,38.62,45.55,63.2,60.15,2.75-1.64,5.48-3.35,8.18-5.15,43.79-29.11,73.64-73.52,84.02-125.07,10.39-51.55.08-104.06-29.03-147.85-16.85-25.36-38.62-45.53-63.2-60.12-2.75,1.64-5.49,3.33-8.18,5.12-43.8,29.11-73.64,73.52-84.03,125.07Z"/>
  <path class="cls-1" d="M868.9,211.72C724-6.33,429.76-65.62,211.72,79.28-6.33,224.19-65.62,518.42,79.28,736.47c144.91,218.05,439.14,277.34,657.18,132.43,218.05-144.91,277.34-439.14,132.43-657.19ZM715.83,686.21c-43.25,28.74-92.17,42.49-140.58,42.49-34.71,0-69.14-7.09-101.04-20.77-32.33,13.97-66.54,20.77-100.51,20.77-82.5,0-163.52-39.93-212.5-113.65-37.65-56.66-50.99-124.59-37.55-191.28,13.44-66.69,52.04-124.15,108.7-161.8,74.25-49.34,165.19-54.48,241.6-21.75,110.87-47.9,243.88-11.17,313.04,92.9,77.73,116.96,45.81,275.35-71.15,353.08Z"/>
  <path class="cls-1" d="M574.57,277.28c-11.9,0-23.84,1.08-35.67,3.27,17.48,14.94,33.19,32.51,46.53,52.58,71.94,108.26,49.94,251.99-46.47,334.42,48.58,9.02,100.57-.06,144.87-29.5,90.4-60.08,115.07-182.52,55-272.93-37.86-56.98-100.5-87.85-164.26-87.85Z"/>
</svg>